# xmcd
#
# Track frame offsets:
#	150
#	22969
#	46717
#	68432
#	88421
#	108038
#	129137
#	151110
#	176122
#	196804
#	219523
#	236467
#
# Disc length: 3381 seconds
#
# Revision: 0
# Processed by: cddbd v1.5.2PL0 Copyright (c) Steve Scherf et al.
# Submitted via: audiograbber 1.83.01
#
DISCID=8a0d330c
DTITLE=Emmylou Harris - Red Dirt Girl
DYEAR=2000
DGENRE=Country
TTITLE0=The Pearl
TTITLE1=Michelangelo
TTITLE2=I Don't Wanna Talk About It Now
TTITLE3=Tragedy
TTITLE4=Red Dirt Girl
TTITLE5=My Baby Needs A Shepherd
TTITLE6=Bang The Drum Slowly
TTITLE7=J'Ai Fait Tout
TTITLE8=One Big Love
TTITLE9=Hour Of Gold
TTITLE10=My Antonia
TTITLE11=Boy From Tupelo
EXTD=
EXTT0=
EXTT1=
EXTT2=
EXTT3=
EXTT4=
EXTT5=
EXTT6=
EXTT7=
EXTT8=
EXTT9=
EXTT10=
EXTT11=
PLAYORDER=
